<?xml version="1.0" standalone="no"?>
<!DOCTYPE svg PUBLIC "-//W3C//DTD SVG 20010904//EN"
 "http://www.w3.org/TR/2001/REC-SVG-20010904/DTD/svg10.dtd">
<svg version="1.0" xmlns="http://www.w3.org/2000/svg"
 width="801.000000pt" height="799.000000pt" viewBox="0 0 801.000000 799.000000"
 preserveAspectRatio="xMidYMid meet">

<g transform="translate(0.000000,799.000000) scale(0.100000,-0.100000)"
fill="#000000" stroke="none">
<path d="M0 3995 l0 -3995 4005 0 4005 0 0 3995 0 3995 -4005 0 -4005 0 0
-3995z m2107 2345 c169 -14 234 -25 378 -67 312 -90 472 -173 710 -368 233
-191 407 -423 502 -669 111 -286 135 -387 155 -644 11 -150 4 -285 -26 -462
-45 -269 -169 -548 -351 -790 -77 -101 -282 -306 -362 -360 -130 -90 -167
-112 -264 -162 -96 -50 -228 -106 -289 -123 -50 -13 -80 -28 -74 -36 2 -5 24
-13 47 -19 23 -6 51 -15 62 -20 11 -4 47 -19 80 -32 33 -12 92 -40 132 -60 39
-20 86 -41 105 -47 97 -28 188 -54 228 -63 243 -54 541 -86 808 -87 138 -1
152 1 152 17 1 19 1 3477 0 3505 0 13 -8 17 -34 17 -19 0 -37 4 -40 8 -3 5 21
53 52 107 l57 98 85 29 c104 35 217 61 375 83 132 19 450 17 535 -3 25 -6 83
-19 130 -28 120 -24 301 -84 400 -134 128 -64 207 -119 291 -201 215 -211 262
-464 128 -697 -73 -128 -242 -269 -434 -364 -148 -73 -237 -101 -439 -139 -73
-14 -67 -18 84 -57 118 -31 151 -42 208 -69 31 -15 36 -14 115 16 231 88 373
120 530 121 139 0 191 -34 192 -129 l1 -46 45 -7 c65 -11 97 -27 120 -60 20
-28 22 -64 8 -142 -3 -15 3 -21 26 -26 116 -25 164 -122 99 -199 -36 -43 -74
-47 -196 -22 -96 20 -208 28 -208 15 0 -3 24 -35 53 -72 129 -162 208 -316
259 -503 20 -75 23 -107 23 -284 0 -224 -6 -260 -77 -445 -55 -144 -104 -234
-194 -351 -147 -191 -325 -337 -564 -461 -119 -61 -176 -84 -258 -103 -31 -7
-75 -18 -97 -25 -65 -19 -115 -29 -210 -45 -49 -8 -110 -20 -135 -26 -129 -30
-842 -40 -1065 -14 -487 55 -793 156 -1001 330 -137 114 -340 212 -529 254
-93 20 -179 26 -405 26 -195 0 -239 -3 -330 -22 -223 -48 -416 -132 -564 -248
-68 -52 -88 -73 -135 -133 -48 -62 -78 -54 -59 17 14 51 92 187 153 266 70 92
146 167 245 245 97 77 176 120 282 156 44 14 77 28 74 31 -2 3 -48 16 -101 29
-101 25 -171 64 -195 110 -20 35 -7 39 37 10 118 -78 619 -84 834 -11 158 54
343 184 464 325 225 262 356 558 436 985 20 105 23 152 24 385 0 342 -19 475
-110 775 -34 112 -92 256 -109 273 -14 15 15 38 -529 -412 -120 -98 -217 -181
-217 -183 0 -2 25 -36 55 -76 66 -86 90 -136 116 -235 36 -142 16 -303 -53
-435 -45 -86 -164 -203 -253 -249 -184 -95 -393 -93 -578 5 -59 31 -159 120
-208 184 l-24 33 -87 -76 c-78 -67 -108 -82 -108 -54 0 4 28 31 63 58 34 28
75 61 92 75 l29 24 -18 42 c-11 22 -23 41 -28 41 -5 0 -49 -34 -99 -75 -81
-67 -109 -81 -109 -56 0 5 45 46 101 91 l100 84 -8 40 c-13 66 -7 216 12 286
27 103 72 177 160 265 87 87 163 132 277 162 113 30 295 16 390 -31 27 -14 30
-12 216 142 104 87 286 237 405 335 l216 179 -27 41 c-85 132 -239 291 -361
371 -159 104 -263 140 -463 158 -109 10 -143 10 -250 -5 -239 -34 -567 -129
-715 -208 -126 -67 -174 -66 -94 3 39 34 261 149 361 188 140 55 367 112 511
129 106 12 114 12 256 1z"/>
<path d="M4258 5862 l-38 -3 0 -1175 0 -1174 66 0 c113 0 274 65 383 154 147
120 251 324 280 546 9 72 7 338 -3 348 -12 11 -149 14 -192 3 -40 -10 -50 -10
-63 3 -23 24 -1 41 104 77 321 110 608 315 698 499 42 85 45 187 7 265 -47 97
-171 195 -378 299 -120 60 -281 108 -486 146 -65 12 -292 19 -378 12z"/>
<path d="M4152 4098 c2 -1169 6 -1762 13 -1761 7 2 11 600 13 1763 2 1562 0
1760 -13 1760 -13 0 -15 -198 -13 -1762z"/>
<path d="M2843 5583 c-32 -26 -101 -84 -154 -128 -53 -44 -154 -127 -224 -185
-71 -58 -145 -119 -164 -136 -20 -17 -65 -55 -101 -83 -85 -68 -88 -75 -46
-100 18 -12 38 -21 44 -21 6 0 37 22 69 48 32 27 164 136 293 243 129 107 270
223 313 258 42 35 77 67 77 72 0 9 -40 79 -45 79 -2 0 -29 -21 -62 -47z"/>
<path d="M5007 4533 c-9 -19 -1 -343 9 -353 8 -8 34 7 95 55 46 37 101 75 121
86 66 34 63 43 -47 124 -100 74 -167 107 -178 88z"/>
<path d="M5515 3784 c-73 -54 -155 -138 -155 -159 0 -26 208 -115 271 -115 26
0 25 50 -1 178 -22 103 -35 142 -47 142 -5 0 -35 -21 -68 -46z"/>
<path d="M4232 3452 c-9 -6 -12 -126 -10 -563 l3 -554 35 2 c168 8 399 34 525
58 44 8 98 18 120 23 l40 7 7 120 c21 355 -116 662 -361 808 -114 68 -321 125
-359 99z"/>
<path d="M5510 3416 c-119 -43 -195 -89 -266 -160 -105 -106 -173 -232 -217
-406 -16 -67 -21 -117 -21 -239 -1 -111 2 -155 11 -158 17 -7 185 49 269 88
50 23 90 53 145 108 64 64 84 92 127 181 27 58 59 144 71 191 24 103 47 339
37 392 -6 34 -10 37 -39 36 -18 -1 -70 -16 -117 -33z"/>
<path d="M3412 2318 c-17 -22 -19 -98 -2 -98 6 0 10 5 10 12 0 6 15 24 32 38
28 24 31 30 19 44 -16 19 -45 21 -59 4z"/>
<path d="M3487 2263 c-18 -55 -11 -69 26 -52 27 12 36 29 17 29 -5 0 -10 16
-10 35 0 49 -15 44 -33 -12z"/>
<path d="M3566 2288 c-3 -13 -6 -35 -6 -50 0 -26 3 -28 37 -28 34 0 35 1 20
18 -15 16 -15 20 -1 40 14 21 14 23 -11 32 -34 13 -32 14 -39 -12z"/>
<path d="M4806 2295 c-3 -8 -12 -15 -21 -15 -10 0 -15 -10 -16 -27 0 -26 -1
-26 -9 -7 -13 34 -39 38 -52 8 -12 -25 -12 -25 -20 -5 -8 22 -34 38 -45 27 -3
-3 -1 -12 6 -20 9 -10 9 -20 0 -40 -14 -31 -6 -44 16 -26 9 7 29 13 45 12 16
0 32 3 35 8 3 5 12 7 20 3 9 -3 26 2 40 11 14 9 25 12 25 6 0 -20 15 -9 29 20
10 24 10 34 1 45 -16 19 -46 19 -54 0z"/>
<path d="M3671 2279 c-45 -48 -31 -99 23 -85 33 8 34 26 1 26 -31 0 -33 23 -3
44 16 12 19 19 11 27 -8 8 -16 4 -32 -12z"/>
<path d="M3747 2283 c-3 -5 -8 -27 -12 -50 -7 -43 -7 -43 24 -43 32 0 42 16
17 26 -10 4 -13 15 -9 40 5 31 -8 48 -20 27z"/>
<path d="M3827 2273 c-3 -5 -5 -27 -4 -51 0 -34 3 -42 16 -40 11 3 16 14 15
36 -1 18 2 32 7 32 5 0 9 7 9 15 0 15 -35 21 -43 8z"/>
<path d="M4300 2261 c0 -11 6 -21 13 -24 9 -3 7 -12 -6 -36 -18 -30 -18 -31 0
-31 11 0 24 5 30 11 8 8 17 8 30 0 15 -7 25 -6 41 5 29 20 28 60 0 75 -18 10
-24 8 -38 -11 l-16 -21 -12 25 c-14 30 -42 35 -42 7z m105 -41 c3 -5 -1 -10
-10 -10 -9 0 -13 5 -10 10 3 6 8 10 10 10 2 0 7 -4 10 -10z"/>
<path d="M4518 2274 c-4 -3 -3 -17 2 -30 5 -13 7 -31 4 -39 -8 -19 19 -20 34
-2 23 28 -16 96 -40 71z"/>
<path d="M3886 2248 c-30 -42 -9 -87 34 -73 26 8 26 25 0 25 -28 0 -25 29 5
40 32 12 32 30 1 30 -14 0 -32 -10 -40 -22z"/>
<path d="M4040 2255 c-9 -11 -16 -13 -24 -5 -5 5 -13 10 -17 10 -10 0 -30 -60
-24 -71 7 -11 47 -8 64 5 10 8 15 8 18 -1 10 -30 23 -10 17 25 -8 47 -17 57
-34 37z"/>
<path d="M4128 2253 c-32 -37 -39 -61 -23 -77 17 -17 56 -8 63 14 3 9 -3 11
-22 6 -24 -6 -25 -5 -14 19 6 14 18 25 25 25 8 0 13 5 11 12 -7 19 -23 20 -40
1z"/>
<path d="M4440 2261 c0 -5 5 -13 11 -16 6 -4 7 -19 4 -36 -6 -25 -3 -29 14
-29 27 0 31 9 22 50 -5 26 -13 36 -29 38 -12 2 -22 -1 -22 -7z"/>
<path d="M4595 2239 c-4 -6 -5 -13 -2 -16 7 -7 27 6 27 18 0 12 -17 12 -25 -2z"/>
</g>
</svg>
