<?xml version="1.0" standalone="no"?>
<!DOCTYPE svg PUBLIC "-//W3C//DTD SVG 20010904//EN"
 "http://www.w3.org/TR/2001/REC-SVG-20010904/DTD/svg10.dtd">
<svg version="1.0" xmlns="http://www.w3.org/2000/svg"
 width="300.000000pt" height="300.000000pt" viewBox="0 0 300.000000 300.000000"
 preserveAspectRatio="xMidYMid meet">
<metadata>
Created by potrace 1.10, written by Peter Selinger 2001-2011
</metadata>
<g transform="translate(0.000000,300.000000) scale(0.100000,-0.100000)"
fill="#000000" stroke="none">
<path d="M1790 2583 c-19 -3 -39 -8 -45 -12 -5 -5 -23 -11 -40 -15 -37 -8
-115 -48 -115 -58 0 -5 -5 -8 -12 -8 -7 0 -32 -21 -55 -47 -85 -95 -122 -211
-126 -390 -1 -76 36 -93 93 -43 19 16 40 29 46 30 6 0 20 10 32 23 18 19 23
38 25 93 8 168 85 267 235 299 31 6 32 5 32 -24 0 -26 -4 -31 -23 -31 -67 0
-175 -88 -207 -168 -21 -54 -5 -46 34 18 21 33 41 60 45 60 5 0 20 11 34 25
14 14 33 27 44 29 10 2 31 7 47 12 l29 7 -7 -373 c-11 -605 -15 -651 -68 -717
-33 -42 -74 -63 -125 -63 -26 0 -42 -8 -64 -31 -28 -30 -95 -156 -87 -164 2
-3 28 36 58 85 l55 89 43 1 c90 0 160 63 181 162 11 47 22 327 36 897 l6 234
-57 -7 c-165 -19 -253 -125 -262 -316 l-4 -95 -67 -45 c-36 -25 -69 -46 -73
-48 -14 -6 -8 165 7 238 38 179 131 275 310 319 27 7 105 16 173 20 67 5 126
11 129 15 7 6 -199 6 -257 -1z"/>
<path d="M2310 2544 c51 -17 130 -64 162 -97 52 -54 73 -121 73 -237 0 -89 -2
-99 -34 -155 l-33 -60 31 35 c31 35 34 34 32 -5 0 -13 5 -7 15 15 25 54 28
136 9 220 -9 41 -18 87 -19 101 -4 36 -38 90 -78 119 -18 13 -35 23 -37 21 -2
-1 -7 1 -10 6 -8 13 -87 43 -109 42 -13 0 -14 -2 -2 -5z"/>
<path d="M2067 2493 c-4 -3 -7 -143 -7 -310 0 -236 3 -303 13 -303 9 0 12 69
13 310 1 171 -2 310 -6 310 -4 0 -10 -3 -13 -7z"/>
<path d="M2210 2461 c112 -60 150 -131 147 -273 -2 -51 -7 -102 -12 -112 -6
-13 -5 -17 2 -13 34 21 40 172 12 267 -15 51 -90 133 -129 143 -14 3 -36 8
-50 12 -14 3 0 -7 30 -24z"/>
<path d="M2576 2313 c24 -57 35 -100 44 -183 l8 -75 -4 90 c-2 50 -5 97 -7
105 -7 32 -40 100 -48 100 -5 0 -2 -17 7 -37z"/>
<path d="M660 2269 c-58 -9 -113 -20 -122 -24 -31 -12 -9 -24 26 -14 19 5 96
20 173 34 93 16 120 24 83 22 -30 -1 -102 -9 -160 -18z"/>
<path d="M1095 2226 c130 -100 170 -232 109 -363 -34 -73 -147 -186 -227 -229
l-58 -31 40 -13 c40 -13 41 -12 93 27 129 99 203 194 214 277 9 60 -30 204
-64 244 -13 15 -32 37 -41 48 -9 12 -32 29 -51 38 -27 13 -31 14 -15 2z m-55
-592 c-19 -22 -48 -36 -54 -25 -3 5 9 16 27 25 40 20 42 20 27 0z"/>
<path d="M502 2099 c3 -113 5 -122 27 -140 13 -10 27 -19 31 -19 17 0 57 48
69 85 20 58 47 93 94 117 54 28 151 31 189 6 24 -16 27 -16 40 -1 11 14 10 15
-10 9 -16 -5 -22 -4 -20 5 8 34 -164 54 -218 26 -52 -27 -98 -100 -110 -176
-6 -36 -10 -41 -34 -41 l-28 0 -7 125 c-9 164 -28 168 -23 4z"/>
<path d="M780 2086 c-49 -13 -109 -46 -130 -71 -23 -27 -2 -28 29 -2 38 32
130 67 179 68 33 1 34 2 12 9 -34 11 -38 11 -90 -4z"/>
<path d="M1279 2026 c36 -71 37 -189 2 -259 -29 -60 -119 -158 -184 -202 l-48
-32 28 -18 c98 -64 157 -191 156 -335 -1 -100 -23 -168 -83 -253 -21 -31 -35
-59 -29 -62 5 -4 9 0 9 8 0 7 11 24 24 36 14 13 30 36 36 52 14 33 27 38 27
12 0 -23 -71 -124 -132 -187 -26 -27 -77 -64 -114 -83 -58 -31 -77 -35 -156
-39 l-90 -3 78 19 c42 11 94 29 115 40 40 23 36 22 -47 -5 -84 -28 -258 -17
-374 23 -49 17 -91 33 -94 35 -3 3 18 33 45 66 28 33 55 68 60 78 9 15 15 13
55 -24 83 -77 207 -122 281 -102 45 12 131 58 123 66 -3 2 -16 -2 -29 -11 -47
-31 -118 -46 -166 -35 -61 13 -139 52 -186 91 -22 18 -48 34 -57 35 -33 5
-139 -122 -139 -166 0 -5 25 -21 55 -36 31 -14 53 -30 50 -34 -11 -20 157 -61
246 -61 147 0 269 52 378 160 119 119 173 263 151 404 -6 38 -19 90 -30 114
-11 24 -19 46 -17 50 3 12 -71 117 -93 130 -11 7 -18 17 -15 22 3 6 -1 10 -10
10 -15 0 -15 2 -1 15 8 8 19 15 24 15 19 0 149 147 172 194 15 32 25 74 28
122 4 64 1 79 -24 133 -16 33 -34 63 -39 65 -6 2 0 -19 14 -48z"/>
<path d="M1049 1973 c-1 -52 -8 -93 -20 -115 -6 -11 -6 -18 0 -18 5 0 12 8 16
18 9 24 19 152 11 152 -3 0 -6 -17 -7 -37z"/>
<path d="M2292 1861 c-10 -6 -7 -12 12 -24 32 -22 39 -21 61 3 10 11 13 20 7
20 -6 0 -14 -4 -17 -10 -9 -15 -43 -12 -47 5 -2 9 -8 12 -16 6z"/>
<path d="M1001 1797 c-30 -49 -115 -125 -164 -147 -23 -11 -36 -20 -29 -20 24
0 96 42 139 83 45 42 89 104 80 113 -2 3 -14 -10 -26 -29z"/>
<path d="M2050 1761 c0 -99 -22 -254 -44 -315 -30 -85 -66 -143 -127 -210 -42
-46 -47 -56 -31 -56 11 0 26 -2 34 -5 24 -9 143 191 150 251 2 16 9 35 16 42
14 16 16 36 2 27 -11 -7 -14 18 -4 28 3 3 8 63 11 134 3 70 10 134 15 141 8 9
6 12 -6 12 -13 0 -16 -10 -16 -49z"/>
<path d="M2423 1798 c-22 -11 -20 -13 41 -70 36 -32 74 -78 85 -101 72 -148
39 -317 -86 -440 -62 -61 -159 -118 -235 -137 -53 -14 -54 -15 -34 -35 11 -12
23 -12 75 0 185 44 313 177 344 359 10 61 9 77 -12 159 -24 96 -44 130 -119
205 -35 35 -41 46 -31 58 13 16 3 17 -28 2z"/>
<path d="M2215 1761 c33 -15 70 -39 82 -52 23 -26 69 -118 65 -133 -2 -4 3
-15 9 -23 7 -8 14 -59 17 -119 7 -164 -26 -222 -151 -265 -47 -16 -49 -18 -20
-18 76 -2 162 62 183 137 13 49 13 177 -1 244 -28 135 -134 258 -221 258 -15
0 -3 -10 37 -29z"/>
<path d="M2640 1505 c0 -4 5 -36 11 -70 34 -197 -99 -384 -331 -465 -85 -30
-100 -44 -22 -20 34 10 62 15 62 12 0 -3 5 -1 12 6 7 7 20 12 30 12 10 0 18 4
18 9 0 5 12 14 28 19 15 6 45 26 67 46 22 20 43 36 46 36 18 0 90 124 100 170
14 65 8 225 -8 242 -7 6 -13 8 -13 3z"/>
<path d="M943 1355 c72 -72 92 -102 106 -162 9 -37 9 -37 10 -7 1 17 -13 58
-30 92 -31 63 -67 101 -123 128 -24 12 -15 0 37 -51z"/>
<path d="M1275 1302 c30 -64 38 -104 36 -192 -3 -164 -85 -323 -211 -409 -28
-19 -48 -36 -45 -39 13 -14 150 103 192 165 17 26 64 139 77 188 9 34 10 158
1 200 -9 49 -44 122 -60 129 -7 2 -3 -15 10 -42z"/>
<path d="M2001 1209 c-33 -48 -38 -75 -8 -45 8 8 18 12 21 8 4 -3 4 1 1 10 -4
9 1 28 11 43 31 48 9 34 -25 -16z"/>
<path d="M1543 1013 c13 -16 13 -20 1 -31 -8 -7 -14 -20 -14 -30 0 -11 7 -6
21 16 l21 32 116 1 c69 1 107 4 92 8 -17 5 -3 8 43 9 38 0 71 3 75 6 3 3 -79
6 -183 6 -178 0 -187 -1 -172 -17z"/>
<path d="M1562 920 c15 -4 60 -5 100 0 l73 7 -100 1 c-66 0 -91 -2 -73 -8z"/>
<path d="M1059 819 c-24 -22 -35 -36 -24 -30 20 9 83 71 73 71 -3 0 -25 -18
-49 -41z"/>
<path d="M517 639 c30 -29 166 -57 263 -54 83 2 195 27 215 48 7 7 4 8 -10 2
-118 -44 -286 -46 -413 -3 -62 21 -70 22 -55 7z"/>
</g>
</svg>
