<?xml version="1.0" encoding="UTF-8"?>
<svg version="1.1" xmlns="http://www.w3.org/2000/svg" width="147" height="67">
<path d="M0 0 C48.51 0 97.02 0 147 0 C147 22.11 147 44.22 147 67 C98.49 67 49.98 67 0 67 C0 44.89 0 22.78 0 0 Z " fill="#FDFDFD" transform="translate(0,0)"/>
<path d="M0 0 C4.16636339 1.75913121 6.24086879 3.83363661 8 8 C8.58713739 11.96518816 8.40764661 15.05597627 6.8125 18.75 C3.51391211 22.84479876 1.44107768 24.76756812 -3.875 25.625 C-8.22956581 25.4266896 -10.56523458 23.41911819 -13.65234375 20.5078125 C-16.43993548 17.38894176 -16.44534185 14.43053534 -16.42578125 10.39453125 C-15.69260603 6.27126142 -13.08526198 3.68561665 -10 1 C-6.80401935 -0.59799033 -3.47677244 -0.36773555 0 0 Z " fill="#F6F6F6" transform="translate(58,21)"/>
<path d="M0 0 C2.31 0 4.62 0 7 0 C8.33819498 2.6226232 9.6707151 5.24786599 11 7.875 C11.3815625 8.62136719 11.763125 9.36773437 12.15625 10.13671875 C12.5171875 10.85214844 12.878125 11.56757812 13.25 12.3046875 C13.58515625 12.96452637 13.9203125 13.62436523 14.265625 14.30419922 C15 16 15 16 15 18 C15.66 18 16.32 18 17 18 C17.23783203 17.18208984 17.23783203 17.18208984 17.48046875 16.34765625 C19.30868283 10.43878753 21.82921124 5.30135828 25 0 C27.31 0 29.62 0 32 0 C31.01 0.66 30.02 1.32 29 2 C28.53542584 4.18890786 28.53542584 4.18890786 28.6015625 6.71875 C28.59769531 7.65074219 28.59382813 8.58273438 28.58984375 9.54296875 C28.60144531 10.51878906 28.61304687 11.49460937 28.625 12.5 C28.61339844 13.47582031 28.60179688 14.45164062 28.58984375 15.45703125 C28.59564453 16.85501953 28.59564453 16.85501953 28.6015625 18.28125 C28.60494629 19.13783203 28.60833008 19.99441406 28.61181641 20.87695312 C28.80396729 21.92786133 28.80396729 21.92786133 29 23 C29.99 23.66 30.98 24.32 32 25 C28.37 25 24.74 25 21 25 C21.99 24.34 22.98 23.68 24 23 C24.22212754 20.03237603 24.28037029 17.33095985 24.1875 14.375 C24.125625 11.61125 24.06375 8.8475 24 6 C21.36 12.27 18.72 18.54 16 25 C15.34 25 14.68 25 14 25 C11.36 19.06 8.72 13.12 6 7 C5.938125 9.59875 5.87625 12.1975 5.8125 14.875 C5.78518799 15.69210449 5.75787598 16.50920898 5.72973633 17.35107422 C5.70782866 19.236076 5.85101223 21.12076763 6 23 C6.99 23.66 7.98 24.32 9 25 C6.03 25 3.06 25 0 25 C0.99 24.67 1.98 24.34 3 24 C3 16.41 3 8.82 3 1 C2.01 0.67 1.02 0.34 0 0 Z " fill="#282828" transform="translate(91,21)"/>
<path d="M0 0 C2.06132142 -0.10864945 4.12431321 -0.18588321 6.1875 -0.25 C7.33605469 -0.29640625 8.48460937 -0.3428125 9.66796875 -0.390625 C13.65304257 0.07655833 15.23703301 1.13945611 18 4 C18.58763244 8.1134271 18.33043558 9.50434664 16 13 C13.00539996 13.7081094 10.08264211 13.77981128 7 14 C7 17.3 7 20.6 7 24 C7.99 24.33 8.98 24.66 10 25 C6.7 25 3.4 25 0 25 C0.66 24.34 1.32 23.68 2 23 C2.31019696 20.80397205 2.31019696 20.80397205 2.265625 18.28125 C2.26820312 17.34925781 2.27078125 16.41726562 2.2734375 15.45703125 C2.26570313 14.48121094 2.25796875 13.50539063 2.25 12.5 C2.25773437 11.52417969 2.26546875 10.54835938 2.2734375 9.54296875 C2.26957031 8.14498047 2.26957031 8.14498047 2.265625 6.71875 C2.26336914 5.86216797 2.26111328 5.00558594 2.25878906 4.12304688 C2.19501572 1.78411453 2.19501572 1.78411453 0 0 Z " fill="#313131" transform="translate(21,21)"/>
<path d="M0 0 C4.16636339 1.75913121 6.24086879 3.83363661 8 8 C8.58713739 11.96518816 8.40764661 15.05597627 6.8125 18.75 C3.51391211 22.84479876 1.44107768 24.76756812 -3.875 25.625 C-8.22956581 25.4266896 -10.56523458 23.41911819 -13.65234375 20.5078125 C-16.43993548 17.38894176 -16.44534185 14.43053534 -16.42578125 10.39453125 C-15.69260603 6.27126142 -13.08526198 3.68561665 -10 1 C-6.80401935 -0.59799033 -3.47677244 -0.36773555 0 0 Z M-11 5 C-12.86047666 8.72095332 -12.42842641 12.93926276 -12 17 C-10.75429693 20.70570703 -10.75429693 20.70570703 -8 23 C-4.99682618 23.71906979 -3.16955494 23.45279356 0 23 C2.67431489 21.18836733 2.95920359 20.12238923 4 17 C4.49750627 12.18805406 4.67272046 8.26781933 2.375 3.9375 C-2.83907851 -0.31609036 -6.38873919 0.38873919 -11 5 Z " fill="#202020" transform="translate(58,21)"/>
<path d="M0 0 C5.94 0 11.88 0 18 0 C17.67 0.99 17.34 1.98 17 3 C16.67 2.67 16.34 2.34 16 2 C14.31816052 1.76712992 12.6287584 1.58735834 10.9375 1.4375 C9.308125 1.293125 7.67875 1.14875 6 1 C6 4.3 6 7.6 6 11 C9.3 10.67 12.6 10.34 16 10 C15.67 11.32 15.34 12.64 15 14 C14.67 13.67 14.34 13.34 14 13 C12.65252916 12.76924918 11.29622435 12.58846937 9.9375 12.4375 C8.638125 12.293125 7.33875 12.14875 6 12 C6.33 15.63 6.66 19.26 7 23 C11.5195611 23.27589392 11.5195611 23.27589392 16 23 C18.12355567 21.17728073 18.12355567 21.17728073 19 19 C19.66 19.33 20.32 19.66 21 20 C20.01 22.475 20.01 22.475 19 25 C12.73 25 6.46 25 0 25 C0.66 24.34 1.32 23.68 2 23 C2.31019696 20.80397205 2.31019696 20.80397205 2.265625 18.28125 C2.26820312 17.34925781 2.27078125 16.41726562 2.2734375 15.45703125 C2.26570313 14.48121094 2.25796875 13.50539063 2.25 12.5 C2.25773437 11.52417969 2.26546875 10.54835938 2.2734375 9.54296875 C2.26957031 8.14498047 2.26957031 8.14498047 2.265625 6.71875 C2.26336914 5.86216797 2.26111328 5.00558594 2.25878906 4.12304688 C2.19501572 1.78411453 2.19501572 1.78411453 0 0 Z " fill="#020202" transform="translate(69,21)"/>
<path d="M0 0 C2.31 0 4.62 0 7 0 C6.01 0.66 5.02 1.32 4 2 C3.53542584 4.18890786 3.53542584 4.18890786 3.6015625 6.71875 C3.59769531 7.65074219 3.59382813 8.58273438 3.58984375 9.54296875 C3.60144531 10.51878906 3.61304687 11.49460937 3.625 12.5 C3.61339844 13.47582031 3.60179688 14.45164062 3.58984375 15.45703125 C3.59371094 16.38902344 3.59757812 17.32101563 3.6015625 18.28125 C3.60494629 19.13783203 3.60833008 19.99441406 3.61181641 20.87695312 C3.73991699 21.57755859 3.86801758 22.27816406 4 23 C4.99 23.66 5.98 24.32 7 25 C3.37 25 -0.26 25 -4 25 C-3.01 24.34 -2.02 23.68 -1 23 C-0.49468134 21.07558585 -0.49468134 21.07558585 -0.48828125 18.8671875 C-0.45283203 18.06152344 -0.41738281 17.25585938 -0.38085938 16.42578125 C-0.35830078 15.58402344 -0.33574219 14.74226563 -0.3125 13.875 C-0.27833984 13.02550781 -0.24417969 12.17601562 -0.20898438 11.30078125 C-0.12640827 9.20098895 -0.06153022 7.10051436 0 5 C-0.66 5 -1.32 5 -2 5 C-1.34 3.35 -0.68 1.7 0 0 Z " fill="#040404" transform="translate(116,21)"/>
<path d="M0 0 C3.63 0 7.26 0 11 0 C9.02 0.99 9.02 0.99 7 2 C7 9.26 7 16.52 7 24 C7.99 24.33 8.98 24.66 10 25 C6.7 25 3.4 25 0 25 C0.66 24.34 1.32 23.68 2 23 C2.31019696 20.80397205 2.31019696 20.80397205 2.265625 18.28125 C2.26820312 17.34925781 2.27078125 16.41726562 2.2734375 15.45703125 C2.26570313 14.48121094 2.25796875 13.50539063 2.25 12.5 C2.25773437 11.52417969 2.26546875 10.54835938 2.2734375 9.54296875 C2.26957031 8.14498047 2.26957031 8.14498047 2.265625 6.71875 C2.26336914 5.86216797 2.26111328 5.00558594 2.25878906 4.12304688 C2.19501572 1.78411453 2.19501572 1.78411453 0 0 Z " fill="#020202" transform="translate(21,21)"/>
<path d="M0 0 C2.8951683 0.29950017 3.83823494 0.80934832 5.75 3.0625 C7.36094324 6.84821661 7.61725146 9.94260042 7 14 C5.48202348 17.25280684 3.65384499 19.59890215 1 22 C0.01 21.67 -0.98 21.34 -2 21 C-1.525625 20.566875 -1.05125 20.13375 -0.5625 19.6875 C2.70733712 16.15607591 2.2010525 11.97898187 2.16796875 7.453125 C1.97627568 4.65351465 1.32069572 2.47630447 0 0 Z " fill="#0E0E0E" transform="translate(59,23)"/>
<path d="M0 0 C1.65 0 3.3 0 5 0 C7 2 7 2 7.3125 4.9375 C7 8 7 8 5.75 9.9375 C5.1725 10.288125 4.595 10.63875 4 11 C2.68 10.67 1.36 10.34 0 10 C0 6.7 0 3.4 0 0 Z " fill="#F7F7F7" transform="translate(28,23)"/>
<path d="M0 0 C0.33 0 0.66 0 1 0 C1.01458252 0.56509277 1.02916504 1.13018555 1.04418945 1.71240234 C1.11856058 4.26730019 1.21525242 6.82087498 1.3125 9.375 C1.33505859 10.26445313 1.35761719 11.15390625 1.38085938 12.0703125 C1.41630859 12.92109375 1.45175781 13.771875 1.48828125 14.6484375 C1.51446533 15.43395996 1.54064941 16.21948242 1.56762695 17.02880859 C1.84889597 19.40040156 1.84889597 19.40040156 5 21 C2.03 21 -0.94 21 -4 21 C-3.01 20.34 -2.02 19.68 -1 19 C-0.49378487 16.97723319 -0.49378487 16.97723319 -0.48828125 14.6484375 C-0.43510742 13.37226562 -0.43510742 13.37226562 -0.38085938 12.0703125 C-0.35830078 11.18085937 -0.33574219 10.29140625 -0.3125 9.375 C-0.27833984 8.4778125 -0.24417969 7.580625 -0.20898438 6.65625 C-0.12637598 4.43762462 -0.05727281 2.2194006 0 0 Z " fill="#040404" transform="translate(95,25)"/>
<path d="M0 0 C0.66 0.33 1.32 0.66 2 1 C1.34 2.65 0.68 4.3 0 6 C-3.96 6 -7.92 6 -12 6 C-12 5.67 -12 5.34 -12 5 C-11.38511719 4.97421875 -10.77023438 4.9484375 -10.13671875 4.921875 C-5.00745409 4.7185352 -5.00745409 4.7185352 -0.9375 1.9375 C-0.628125 1.298125 -0.31875 0.65875 0 0 Z " fill="#252525" transform="translate(88,40)"/>
</svg>
