<?xml version="1.0" encoding="UTF-8"?>
<svg version="1.1" xmlns="http://www.w3.org/2000/svg" width="180" height="33">
<path d="M0 0 C59.4 0 118.8 0 180 0 C180 10.89 180 21.78 180 33 C120.6 33 61.2 33 0 33 C0 22.11 0 11.22 0 0 Z " fill="#F8F8F8" transform="translate(0,0)"/>
<path d="M0 0 C1.65 0 3.3 0 5 0 C5.33 2.64 5.66 5.28 6 8 C6.33 7.67 6.66 7.34 7 7 C13.25280899 6.41011236 13.25280899 6.41011236 16.375 8.875 C19.28991731 12.68681494 19.31977468 15.20337975 19 20 C16.69767442 25.65116279 16.69767442 25.65116279 14 27 C11.6670386 27.04166002 9.3329614 27.04166002 7 27 C6.34 27 5.68 27 5 27 C3.35 27 1.7 27 0 27 C0 18.09 0 9.18 0 0 Z " fill="#0E0E0E" transform="translate(125,5)"/>
<path d="M0 0 C1.65 0 3.3 0 5 0 C5.33 0.66 5.66 1.32 6 2 C6.66 1.34 7.32 0.68 8 0 C11.58019735 -0.23349113 14.5529814 0.10632851 18 1 C18.33 0.67 18.66 0.34 19 0 C22.41571123 -0.37952347 24.31018614 -0.47509541 27.18359375 1.50390625 C29.71581903 4.98367389 29.4393898 8.12712965 29.25 12.25 C29.23195313 12.99507812 29.21390625 13.74015625 29.1953125 14.5078125 C29.14835649 16.33909701 29.07661652 18.16971649 29 20 C27.35 20 25.7 20 24 20 C23.67 15.38 23.34 10.76 23 6 C21.68 5.67 20.36 5.34 19 5 C17.05909174 6.94090826 17.60080565 10.47293902 17.4375 13.0625 C17.35371094 14.35285156 17.26992188 15.64320312 17.18359375 16.97265625 C17.09271484 18.47119141 17.09271484 18.47119141 17 20 C15.35 20 13.7 20 12 20 C11.67 15.05 11.34 10.1 11 5 C9.35 5.33 7.7 5.66 6 6 C5.67 10.62 5.34 15.24 5 20 C3.35 20 1.7 20 0 20 C0 13.4 0 6.8 0 0 Z " fill="#080808" transform="translate(37,12)"/>
<path d="M0 0 C1.31291016 -0.03867188 1.31291016 -0.03867188 2.65234375 -0.078125 C5.58401536 0.32100047 6.24414458 0.97239574 8.0625 3.25 C8.49487305 5.15112305 8.49487305 5.15112305 8.57421875 7.26171875 C8.62739258 8.39770508 8.62739258 8.39770508 8.68164062 9.55664062 C8.70419922 10.34232422 8.72675781 11.12800781 8.75 11.9375 C8.80124023 13.13342773 8.80124023 13.13342773 8.85351562 14.35351562 C8.93588104 16.31851904 9.00087067 18.28423696 9.0625 20.25 C6.39583333 20.25 3.72916667 20.25 1.0625 20.25 C0.44375 20.27320312 -0.175 20.29640625 -0.8125 20.3203125 C-1.51375 20.33835937 -2.215 20.35640625 -2.9375 20.375 C-3.989375 20.40980469 -3.989375 20.40980469 -5.0625 20.4453125 C-6.9375 20.25 -6.9375 20.25 -8.9375 18.25 C-9.3125 14.8125 -9.3125 14.8125 -8.9375 11.25 C-6.00578386 7.73194063 -2.31584373 7.67099459 2.0625 7.25 C2.0625 6.59 2.0625 5.93 2.0625 5.25 C-1.42984244 5.15021879 -4.53187148 5.47157062 -7.9375 6.25 C-7.5625 3.8125 -7.5625 3.8125 -6.9375 1.25 C-4.48367866 0.02308933 -2.73765897 0.04824069 0 0 Z " fill="#090909" transform="translate(111.9375,11.75)"/>
<path d="M0 0 C2.72767414 0.86137078 3.63585014 1.47198271 5.25 3.8125 C6 6 6 6 6 11 C1.38 11 -3.24 11 -8 11 C-7.34 12.32 -6.68 13.64 -6 15 C-4.33388095 15.042721 -2.66617115 15.04063832 -1 15 C-0.67 14.67 -0.34 14.34 0 14 C1.66617115 13.95936168 3.33388095 13.957279 5 14 C4.6875 15.875 4.6875 15.875 4 18 C-0.00633751 20.67089167 -3.28991428 20.70693873 -8 20 C-11.03215675 17.80168636 -11.81654398 16.55036806 -13 13 C-13.67605634 6.01408451 -13.67605634 6.01408451 -11 2 C-6.88157597 -0.74561602 -4.89307732 -0.54367526 0 0 Z " fill="#0A0A0A" transform="translate(169,12)"/>
<path d="M0 0 C2.72767414 0.86137078 3.63585014 1.47198271 5.25 3.8125 C6 6 6 6 6 11 C1.38 11 -3.24 11 -8 11 C-7.34 12.32 -6.68 13.64 -6 15 C-4.33388095 15.042721 -2.66617115 15.04063832 -1 15 C-0.67 14.67 -0.34 14.34 0 14 C1.66617115 13.95936168 3.33388095 13.957279 5 14 C4.6875 15.875 4.6875 15.875 4 18 C-0.00633751 20.67089167 -3.28991428 20.70693873 -8 20 C-11.03215675 17.80168636 -11.81654398 16.55036806 -13 13 C-13.67605634 6.01408451 -13.67605634 6.01408451 -11 2 C-6.88157597 -0.74561602 -4.89307732 -0.54367526 0 0 Z " fill="#0A0A0A" transform="translate(82,12)"/>
<path d="M0 0 C1.65 0.33 3.3 0.66 5 1 C5 5.95 5 10.9 5 16 C6.65 16 8.3 16 10 16 C9.97679687 15.01257812 9.95359375 14.02515625 9.9296875 13.0078125 C9.91164063 11.72648437 9.89359375 10.44515625 9.875 9.125 C9.85179687 7.84882813 9.82859375 6.57265625 9.8046875 5.2578125 C10 2 10 2 12 0 C15.53571429 0.53571429 15.53571429 0.53571429 17 2 C17.07271741 4.35313555 17.08370868 6.70833668 17.0625 9.0625 C17.05347656 10.35285156 17.04445313 11.64320312 17.03515625 12.97265625 C17.02355469 13.97167969 17.01195313 14.97070312 17 16 C18.32 16.33 19.64 16.66 21 17 C13.41 17 5.82 17 -2 17 C-2.04125 14.56625 -2.0825 12.1325 -2.125 9.625 C-2.14320801 8.86010254 -2.16141602 8.09520508 -2.18017578 7.30712891 C-2.1948117 5.53712725 -2.09928514 3.76727545 -2 2 C-1.34 1.34 -0.68 0.68 0 0 Z " fill="#EBEBEB" transform="translate(44,16)"/>
<path d="M0 0 C7.26 0 14.52 0 22 0 C22 1.65 22 3.3 22 5 C19.36 5 16.72 5 14 5 C14 12.26 14 19.52 14 27 C12.35 27 10.7 27 9 27 C9 19.74 9 12.48 9 5 C6.03 5 3.06 5 0 5 C0 3.35 0 1.7 0 0 Z " fill="#0A0A0A" transform="translate(2,5)"/>
<path d="M0 0 C1.98 0 3.96 0 6 0 C6 8.91 6 17.82 6 27 C4.02 27 2.04 27 0 27 C0 18.09 0 9.18 0 0 Z " fill="#242424" transform="translate(147,5)"/>
<path d="M0 0 C1.65 0 3.3 0 5 0 C5 1.65 5 3.3 5 5 C5.99 5 6.98 5 8 5 C8 6.32 8 7.64 8 9 C7.01 9 6.02 9 5 9 C5 12.96 5 16.92 5 21 C5.99 21 6.98 21 8 21 C8 22.32 8 23.64 8 25 C5.125 25.125 5.125 25.125 2 25 C0 23 0 23 -0.1953125 19.7421875 C-0.17210938 18.46601563 -0.14890625 17.18984375 -0.125 15.875 C-0.10695313 14.59367187 -0.08890625 13.31234375 -0.0703125 11.9921875 C-0.04710938 11.00476562 -0.02390625 10.01734375 0 9 C-0.99 9 -1.98 9 -3 9 C-3 7.68 -3 6.36 -3 5 C-2.01 5 -1.02 5 0 5 C0 3.35 0 1.7 0 0 Z " fill="#080808" transform="translate(92,7)"/>
<path d="M0 0 C1.98 0 3.96 0 6 0 C6 6.6 6 13.2 6 20 C4.02 20 2.04 20 0 20 C0 13.4 0 6.8 0 0 Z " fill="#252525" transform="translate(27,12)"/>
<path d="M0 0 C1.65 0 3.3 0 5 0 C5.95946595 4.61965088 5.96102244 8.68129125 5.5625 13.375 C5.46066406 14.62023438 5.35882813 15.86546875 5.25390625 17.1484375 C5.12822266 18.55996094 5.12822266 18.55996094 5 20 C3.35 20 1.7 20 0 20 C0 13.4 0 6.8 0 0 Z " fill="#111111" transform="translate(37,12)"/>
<path d="M0 0 C4.55555556 0.55555556 4.55555556 0.55555556 6 2 C6.27314815 7.73611111 6.27314815 7.73611111 6 10 C4 12 4 12 1.375 12.125 C0.59125 12.08375 -0.1925 12.0425 -1 12 C-2.11445498 9.77109005 -2.16480286 8.46944894 -2.1875 6 C-2.20167969 5.29875 -2.21585938 4.5975 -2.23046875 3.875 C-2 2 -2 2 0 0 Z " fill="#F6F6F6" transform="translate(132,16)"/>
<path d="M0 0 C0.78375 0.04125 1.5675 0.0825 2.375 0.125 C2.045 1.775 1.715 3.425 1.375 5.125 C-0.275 5.455 -1.925 5.785 -3.625 6.125 C-4.25 4.25 -4.25 4.25 -4.625 2.125 C-2.625 0.125 -2.625 0.125 0 0 Z " fill="#E5E5E5" transform="translate(112.625,22.875)"/>
<path d="M0 0 C0.33 0.66 0.66 1.32 1 2 C1.721875 1.67 2.44375 1.34 3.1875 1 C6.01697427 -0.00603529 8.02895466 -0.16977402 11 0 C11 1.32 11 2.64 11 4 C7.37 3.67 3.74 3.34 0 3 C0 2.01 0 1.02 0 0 Z " fill="#D5D5D5" transform="translate(103,16)"/>
<path d="M0 0 C1.98 0 3.96 0 6 0 C6 1.65 6 3.3 6 5 C4.02 5 2.04 5 0 5 C0 3.35 0 1.7 0 0 Z " fill="#2E2E2E" transform="translate(27,5)"/>
<path d="M0 0 C1.051875 0.7115625 1.051875 0.7115625 2.125 1.4375 C5.16081337 3.08739857 7.59168786 3.60368464 11 4 C11 4.33 11 4.66 11 5 C6.05 5 1.1 5 -4 5 C-2.68 4.67 -1.36 4.34 0 4 C0 2.68 0 1.36 0 0 Z " fill="#D1D1D1" transform="translate(100,28)"/>
<path d="M0 0 C1.65 0 3.3 0 5 0 C5.33 1.32 5.66 2.64 6 4 C3.36 4 0.72 4 -2 4 C-1.34 2.68 -0.68 1.36 0 0 Z " fill="#EEEEEE" transform="translate(163,16)"/>
<path d="M0 0 C1.65 0 3.3 0 5 0 C5.33 1.32 5.66 2.64 6 4 C3.36 4 0.72 4 -2 4 C-1.34 2.68 -0.68 1.36 0 0 Z " fill="#EEEEEE" transform="translate(76,16)"/>
</svg>
